<?xml version="1.0" encoding="utf-8"?>
<!-- Generator: Adobe Illustrator 27.5.0, SVG Export Plug-In . SVG Version: 6.00 Build 0)  -->
<svg version="1.1" xmlns="http://www.w3.org/2000/svg" xmlns:xlink="http://www.w3.org/1999/xlink" x="0px" y="0px"
	 viewBox="0 0 500 500" style="enable-background:new 0 0 500 500;" xml:space="preserve">
<g id="BACKGROUND">
	<g>
		<rect style="fill:#FFFFFF;" width="500" height="500"/>
		<path style="fill:#D3E3F8;" d="M473.113,242.079c-3.635-21.999-23.414-37.901-43.932-46.628
			c-20.518-8.727-42.114-14.497-63.023-22.242c-46.013-17.044-68.652-83.935-122.381-111.215
			C190.521,34.955,78.612,43.638,74.266,140.308c-0.909,20.212,4.961,40.056,7.429,60.137c2.468,20.081,1.112,42.163-11.619,57.889
			c-8.43,10.412-20.888,16.815-29.974,26.659c-20.573,22.289-17.792,61.848,5.697,81.04c22.818,18.643,55.761,16.458,84.849,11.762
			c29.089-4.696,60.525-10.603,86.747,2.836c17.752,9.098,30.156,25.713,43.306,40.713c13.15,15,29.113,29.603,48.908,32.073
			c24.501,3.058,47.096-13.297,64.279-31.028c35.219-36.343,59.733-81.476,83.801-125.994
			C466.817,279.514,476.241,261.011,473.113,242.079z"/>
		<path style="fill:none;stroke:#D3E3F8;stroke-width:1.0324;stroke-miterlimit:10;" d="M488.099,269.177
			c-1.302-23.393-20.16-42.249-40.604-53.693c-20.444-11.444-42.35-19.921-63.313-30.383
			c-46.134-23.024-62.3-74.339-120.749-123.106C215.243,21.787,98.496,17.126,82.99,117.619
			c-3.242,21.011,0.639,42.407,0.939,63.665c0.3,21.258-3.622,44.172-18.704,59.155c-9.987,9.921-23.728,15.196-34.336,24.449
			c-24.02,20.951-25.602,62.592-3.241,85.304c21.722,22.063,56.383,23.518,87.303,21.912c30.92-1.606,64.43-4.211,90.298,12.802
			c17.513,11.518,28.586,30.282,40.622,47.443c12.036,17.161,27.055,34.227,47.453,39.053c25.248,5.974,50.707-8.548,70.669-25.122
			c40.914-33.97,71.641-78.338,101.835-122.113C477.275,307.57,489.219,289.31,488.099,269.177z"/>
	</g>
</g>
<g id="OBJECTS">
	<g>
		<g>
			<g>
				<defs>
					
						<rect id="XMLID_101_" x="229.47" y="412.388" transform="matrix(-1 -1.224647e-16 1.224647e-16 -1 560.9184 843.0082)" width="101.978" height="18.233"/>
				</defs>
				<clipPath id="XMLID_00000154423186820991526560000004390040332483063473_">
					<use xlink:href="#XMLID_101_"  style="overflow:visible;"/>
				</clipPath>
				
					<line style="clip-path:url(#XMLID_00000154423186820991526560000004390040332483063473_);fill:none;stroke:#91BAEE;stroke-width:0.75;stroke-miterlimit:10;" x1="349.075" y1="419.152" x2="175.183" y2="383.231"/>
				
					<line style="clip-path:url(#XMLID_00000154423186820991526560000004390040332483063473_);fill:none;stroke:#91BAEE;stroke-width:0.75;stroke-miterlimit:10;" x1="349.075" y1="423.716" x2="175.183" y2="387.795"/>
				
					<line style="clip-path:url(#XMLID_00000154423186820991526560000004390040332483063473_);fill:none;stroke:#91BAEE;stroke-width:0.75;stroke-miterlimit:10;" x1="349.075" y1="428.281" x2="175.183" y2="392.36"/>
				
					<line style="clip-path:url(#XMLID_00000154423186820991526560000004390040332483063473_);fill:none;stroke:#91BAEE;stroke-width:0.75;stroke-miterlimit:10;" x1="349.075" y1="432.845" x2="175.183" y2="396.924"/>
				
					<line style="clip-path:url(#XMLID_00000154423186820991526560000004390040332483063473_);fill:none;stroke:#91BAEE;stroke-width:0.75;stroke-miterlimit:10;" x1="349.075" y1="437.409" x2="175.183" y2="401.488"/>
				
					<line style="clip-path:url(#XMLID_00000154423186820991526560000004390040332483063473_);fill:none;stroke:#91BAEE;stroke-width:0.75;stroke-miterlimit:10;" x1="349.075" y1="441.974" x2="175.183" y2="406.052"/>
				
					<line style="clip-path:url(#XMLID_00000154423186820991526560000004390040332483063473_);fill:none;stroke:#91BAEE;stroke-width:0.75;stroke-miterlimit:10;" x1="349.075" y1="446.538" x2="175.183" y2="410.617"/>
				
					<line style="clip-path:url(#XMLID_00000154423186820991526560000004390040332483063473_);fill:none;stroke:#91BAEE;stroke-width:0.75;stroke-miterlimit:10;" x1="349.075" y1="451.102" x2="175.183" y2="415.181"/>
				
					<line style="clip-path:url(#XMLID_00000154423186820991526560000004390040332483063473_);fill:none;stroke:#91BAEE;stroke-width:0.75;stroke-miterlimit:10;" x1="349.075" y1="455.667" x2="175.183" y2="419.745"/>
				
					<line style="clip-path:url(#XMLID_00000154423186820991526560000004390040332483063473_);fill:none;stroke:#91BAEE;stroke-width:0.75;stroke-miterlimit:10;" x1="349.075" y1="460.231" x2="175.183" y2="424.31"/>
			</g>
			<rect x="283.102" y="394.843" style="fill:#FFFFFF;" width="48.346" height="7.33"/>
		</g>
		<g>
			<g>
				<defs>
					<rect id="XMLID_61_" x="321.397" y="76.112" width="101.978" height="44.101"/>
				</defs>
				<clipPath id="XMLID_00000142857194386785583710000010019721400061685889_">
					<use xlink:href="#XMLID_61_"  style="overflow:visible;"/>
				</clipPath>
				
					<line style="clip-path:url(#XMLID_00000142857194386785583710000010019721400061685889_);fill:none;stroke:#FFC0AD;stroke-width:0.75;stroke-miterlimit:10;" x1="303.771" y1="82.877" x2="477.663" y2="46.956"/>
				
					<line style="clip-path:url(#XMLID_00000142857194386785583710000010019721400061685889_);fill:none;stroke:#FFC0AD;stroke-width:0.75;stroke-miterlimit:10;" x1="303.771" y1="87.441" x2="477.663" y2="51.52"/>
				
					<line style="clip-path:url(#XMLID_00000142857194386785583710000010019721400061685889_);fill:none;stroke:#FFC0AD;stroke-width:0.75;stroke-miterlimit:10;" x1="303.771" y1="92.005" x2="477.663" y2="56.084"/>
				
					<line style="clip-path:url(#XMLID_00000142857194386785583710000010019721400061685889_);fill:none;stroke:#FFC0AD;stroke-width:0.75;stroke-miterlimit:10;" x1="303.771" y1="96.57" x2="477.663" y2="60.648"/>
				
					<line style="clip-path:url(#XMLID_00000142857194386785583710000010019721400061685889_);fill:none;stroke:#FFC0AD;stroke-width:0.75;stroke-miterlimit:10;" x1="303.771" y1="101.134" x2="477.663" y2="65.213"/>
				
					<line style="clip-path:url(#XMLID_00000142857194386785583710000010019721400061685889_);fill:none;stroke:#FFC0AD;stroke-width:0.75;stroke-miterlimit:10;" x1="303.771" y1="105.698" x2="477.663" y2="69.777"/>
				
					<line style="clip-path:url(#XMLID_00000142857194386785583710000010019721400061685889_);fill:none;stroke:#FFC0AD;stroke-width:0.75;stroke-miterlimit:10;" x1="303.771" y1="110.262" x2="477.663" y2="74.341"/>
				
					<line style="clip-path:url(#XMLID_00000142857194386785583710000010019721400061685889_);fill:none;stroke:#FFC0AD;stroke-width:0.75;stroke-miterlimit:10;" x1="303.771" y1="114.827" x2="477.663" y2="78.906"/>
				
					<line style="clip-path:url(#XMLID_00000142857194386785583710000010019721400061685889_);fill:none;stroke:#FFC0AD;stroke-width:0.75;stroke-miterlimit:10;" x1="303.771" y1="119.391" x2="477.663" y2="83.47"/>
				
					<line style="clip-path:url(#XMLID_00000142857194386785583710000010019721400061685889_);fill:none;stroke:#FFC0AD;stroke-width:0.75;stroke-miterlimit:10;" x1="303.771" y1="123.955" x2="477.663" y2="88.034"/>
				
					<line style="clip-path:url(#XMLID_00000142857194386785583710000010019721400061685889_);fill:none;stroke:#FFC0AD;stroke-width:0.75;stroke-miterlimit:10;" x1="303.771" y1="128.52" x2="477.663" y2="92.598"/>
				
					<line style="clip-path:url(#XMLID_00000142857194386785583710000010019721400061685889_);fill:none;stroke:#FFC0AD;stroke-width:0.75;stroke-miterlimit:10;" x1="303.771" y1="133.084" x2="477.663" y2="97.163"/>
				
					<line style="clip-path:url(#XMLID_00000142857194386785583710000010019721400061685889_);fill:none;stroke:#FFC0AD;stroke-width:0.75;stroke-miterlimit:10;" x1="303.771" y1="137.648" x2="477.663" y2="101.727"/>
				
					<line style="clip-path:url(#XMLID_00000142857194386785583710000010019721400061685889_);fill:none;stroke:#FFC0AD;stroke-width:0.75;stroke-miterlimit:10;" x1="303.771" y1="142.212" x2="477.663" y2="106.291"/>
				
					<line style="clip-path:url(#XMLID_00000142857194386785583710000010019721400061685889_);fill:none;stroke:#FFC0AD;stroke-width:0.75;stroke-miterlimit:10;" x1="303.771" y1="146.777" x2="477.663" y2="110.856"/>
				
					<line style="clip-path:url(#XMLID_00000142857194386785583710000010019721400061685889_);fill:none;stroke:#FFC0AD;stroke-width:0.75;stroke-miterlimit:10;" x1="303.771" y1="151.341" x2="477.663" y2="115.42"/>
				
					<line style="clip-path:url(#XMLID_00000142857194386785583710000010019721400061685889_);fill:none;stroke:#FFC0AD;stroke-width:0.75;stroke-miterlimit:10;" x1="303.771" y1="155.905" x2="477.663" y2="119.984"/>
			</g>
			
				<rect id="XMLID_60_" x="381.401" y="58.567" transform="matrix(-1 -1.224647e-16 1.224647e-16 -1 804.7766 124.4646)" style="fill:#FFE79F;" width="41.974" height="7.33"/>
		</g>
		<g>
			<rect x="41.018" y="59.946" style="fill:#FFC0AD;" width="49.706" height="7.33"/>
			<g>
				<defs>
					<rect id="XMLID_96_" x="41.018" y="76.09" width="82.988" height="72.709"/>
				</defs>
				<clipPath id="XMLID_00000063614012801073367990000011797951663672209819_">
					<use xlink:href="#XMLID_96_"  style="overflow:visible;"/>
				</clipPath>
				
					<line style="clip-path:url(#XMLID_00000063614012801073367990000011797951663672209819_);fill:none;stroke:#FFDB82;stroke-width:0.75;stroke-miterlimit:10;" x1="23.391" y1="80.855" x2="197.283" y2="44.934"/>
				
					<line style="clip-path:url(#XMLID_00000063614012801073367990000011797951663672209819_);fill:none;stroke:#FFDB82;stroke-width:0.75;stroke-miterlimit:10;" x1="23.391" y1="85.419" x2="197.283" y2="49.498"/>
				
					<line style="clip-path:url(#XMLID_00000063614012801073367990000011797951663672209819_);fill:none;stroke:#FFDB82;stroke-width:0.75;stroke-miterlimit:10;" x1="23.391" y1="89.984" x2="197.283" y2="54.062"/>
				
					<line style="clip-path:url(#XMLID_00000063614012801073367990000011797951663672209819_);fill:none;stroke:#FFDB82;stroke-width:0.75;stroke-miterlimit:10;" x1="23.391" y1="94.548" x2="197.283" y2="58.627"/>
				
					<line style="clip-path:url(#XMLID_00000063614012801073367990000011797951663672209819_);fill:none;stroke:#FFDB82;stroke-width:0.75;stroke-miterlimit:10;" x1="23.391" y1="99.112" x2="197.283" y2="63.191"/>
				
					<line style="clip-path:url(#XMLID_00000063614012801073367990000011797951663672209819_);fill:none;stroke:#FFDB82;stroke-width:0.75;stroke-miterlimit:10;" x1="23.391" y1="103.676" x2="197.283" y2="67.755"/>
				
					<line style="clip-path:url(#XMLID_00000063614012801073367990000011797951663672209819_);fill:none;stroke:#FFDB82;stroke-width:0.75;stroke-miterlimit:10;" x1="23.391" y1="108.241" x2="197.283" y2="72.32"/>
				
					<line style="clip-path:url(#XMLID_00000063614012801073367990000011797951663672209819_);fill:none;stroke:#FFDB82;stroke-width:0.75;stroke-miterlimit:10;" x1="23.391" y1="112.805" x2="197.283" y2="76.884"/>
				
					<line style="clip-path:url(#XMLID_00000063614012801073367990000011797951663672209819_);fill:none;stroke:#FFDB82;stroke-width:0.75;stroke-miterlimit:10;" x1="23.391" y1="117.369" x2="197.283" y2="81.448"/>
				
					<line style="clip-path:url(#XMLID_00000063614012801073367990000011797951663672209819_);fill:none;stroke:#FFDB82;stroke-width:0.75;stroke-miterlimit:10;" x1="23.391" y1="121.934" x2="197.283" y2="86.012"/>
				
					<line style="clip-path:url(#XMLID_00000063614012801073367990000011797951663672209819_);fill:none;stroke:#FFDB82;stroke-width:0.75;stroke-miterlimit:10;" x1="23.391" y1="126.498" x2="197.283" y2="90.577"/>
				
					<line style="clip-path:url(#XMLID_00000063614012801073367990000011797951663672209819_);fill:none;stroke:#FFDB82;stroke-width:0.75;stroke-miterlimit:10;" x1="23.391" y1="131.062" x2="197.283" y2="95.141"/>
				
					<line style="clip-path:url(#XMLID_00000063614012801073367990000011797951663672209819_);fill:none;stroke:#FFDB82;stroke-width:0.75;stroke-miterlimit:10;" x1="23.391" y1="135.626" x2="197.283" y2="99.705"/>
				
					<line style="clip-path:url(#XMLID_00000063614012801073367990000011797951663672209819_);fill:none;stroke:#FFDB82;stroke-width:0.75;stroke-miterlimit:10;" x1="23.391" y1="140.191" x2="197.283" y2="104.27"/>
				
					<line style="clip-path:url(#XMLID_00000063614012801073367990000011797951663672209819_);fill:none;stroke:#FFDB82;stroke-width:0.75;stroke-miterlimit:10;" x1="23.391" y1="144.755" x2="197.283" y2="108.834"/>
				
					<line style="clip-path:url(#XMLID_00000063614012801073367990000011797951663672209819_);fill:none;stroke:#FFDB82;stroke-width:0.75;stroke-miterlimit:10;" x1="23.391" y1="149.319" x2="197.283" y2="113.398"/>
				
					<line style="clip-path:url(#XMLID_00000063614012801073367990000011797951663672209819_);fill:none;stroke:#FFDB82;stroke-width:0.75;stroke-miterlimit:10;" x1="23.391" y1="153.92" x2="197.283" y2="117.999"/>
				
					<line style="clip-path:url(#XMLID_00000063614012801073367990000011797951663672209819_);fill:none;stroke:#FFDB82;stroke-width:0.75;stroke-miterlimit:10;" x1="23.391" y1="158.521" x2="197.283" y2="122.6"/>
				
					<line style="clip-path:url(#XMLID_00000063614012801073367990000011797951663672209819_);fill:none;stroke:#FFDB82;stroke-width:0.75;stroke-miterlimit:10;" x1="23.391" y1="163.122" x2="197.283" y2="127.201"/>
				
					<line style="clip-path:url(#XMLID_00000063614012801073367990000011797951663672209819_);fill:none;stroke:#FFDB82;stroke-width:0.75;stroke-miterlimit:10;" x1="23.391" y1="167.723" x2="197.283" y2="131.802"/>
			</g>
		</g>
	</g>
	<g>
		<g>
			<path style="fill:#FFC0A9;" d="M226.547,377.94c3.881,2.204,7.507,4.857,10.781,7.891c2.169,2.009,4.349,4.808,3.483,7.635
				c-0.605,1.976-2.608,3.264-4.641,3.631c-2.034,0.367-5.236-1.774-7.17,2.4c-1.934,4.174,7.154,8.928,10.221,14.793
				c0.788,1.506,1.596,3.091,1.585,4.791c-0.011,1.7-1.142,3.523-2.834,3.691c-1.562,0.154-2.936-1.083-4.496-1.255
				c-2.674-0.295-4.7,2.678-4.742,5.368c-0.042,2.69,1.182,5.219,1.779,7.842c1.418,6.228-0.34,15.352-6.027,17.142
				c-5.688,1.79-12.331-4.742-14.707-10.67c-1.001-2.498-1.433-5.273-2.998-7.462c-1.565-2.189-4.921-3.482-6.953-1.718
				c-1.186,1.029-1.612,2.828-2.984,3.589c-1.487,0.825-3.454-0.031-4.43-1.423c-0.976-1.392-1.213-3.155-1.422-4.842
				c-0.813-6.568,6.584-22.075,2.95-23.789c-3.634-1.714-8.338,7.057-10.22,7.913c-1.881,0.855-4.261,0.934-5.883-0.346
				c-2.32-1.833-2.119-5.375-1.478-8.261c0.967-4.357,2.44-8.602,4.379-12.622c0.783-1.624,1.661-3.283,1.711-5.086
				c0.049-1.803-1.046-3.791-2.83-4.054c-2.784-0.411-4.482,3.237-7.2,3.969c-2.38,0.641-4.857-1.296-5.636-3.634
				c-0.779-2.339-0.281-4.898,0.384-7.271c3.904-13.924,13.123-25.643,22.135-36.953l-0.038-0.045
				c0.007,0.002-0.009-0.011-0.008-0.014c0.005-0.006,0.009-0.012,0.014-0.019l0.038,0.045c13.846,4.176,28.109,8.581,39.239,17.813
				c1.897,1.573,3.77,3.401,4.46,5.767c0.69,2.366-0.243,5.37-2.565,6.197c-2.651,0.944-6.121-1.089-8.177,0.833
				c-1.318,1.231-1.087,3.49-0.02,4.944C223.312,376.184,224.979,377.049,226.547,377.94z"/>
			<g>
				<g>
					<path style="fill:#FFDB82;" d="M216.738,418.161c-9.195-33.847-21.104-66.877-35.602-98.814
						c-0.446-0.983-1.894-0.13-1.45,0.848c14.438,31.805,26.275,64.706,35.432,98.412
						C215.401,419.649,217.022,419.207,216.738,418.161L216.738,418.161z"/>
				</g>
			</g>
			<g>
				<g>
					<path style="fill:#FFDB82;" d="M192.658,349.984c-5.314,6.696-9.498,14.016-12.563,21.995c-0.388,1.01,1.235,1.447,1.619,0.446
						c2.96-7.705,7-14.789,12.131-21.254C194.511,350.334,193.33,349.138,192.658,349.984L192.658,349.984z"/>
				</g>
			</g>
			<g>
				<g>
					<path style="fill:#FFDB82;" d="M202.047,375.185c-5.424,6.598-8.954,14.167-10.437,22.58c-0.186,1.057,1.432,1.51,1.619,0.446
						c1.433-8.127,4.762-15.462,10.005-21.839C203.915,375.544,202.734,374.35,202.047,375.185L202.047,375.185z"/>
				</g>
			</g>
			<g>
				<g>
					<path style="fill:#FFDB82;" d="M209.051,397.524c-3.414,5.044-5.801,10.555-7.15,16.494c-0.239,1.052,1.38,1.502,1.619,0.446
						c1.321-5.812,3.641-11.156,6.981-16.092C211.108,397.474,209.654,396.633,209.051,397.524L209.051,397.524z"/>
				</g>
			</g>
			<g>
				<g>
					<path style="fill:#FFDB82;" d="M193.235,351.081c7.752,1.429,15.059,3.949,22.037,7.632c0.955,0.504,1.805-0.945,0.848-1.45
						c-7.088-3.741-14.552-6.347-22.438-7.801C192.625,349.267,192.172,350.885,193.235,351.081L193.235,351.081z"/>
				</g>
			</g>
			<g>
				<g>
					<path style="fill:#FFDB82;" d="M202.634,376.943c7.19,1.629,13.839,4.451,20.006,8.49c0.907,0.594,1.749-0.86,0.848-1.45
						c-6.279-4.111-13.088-7-20.407-8.659C202.028,375.085,201.578,376.704,202.634,376.943L202.634,376.943z"/>
				</g>
			</g>
			<g>
				<g>
					<path style="fill:#FFDB82;" d="M209.674,398.815c5.75,1.759,10.732,4.932,14.779,9.375c0.729,0.801,1.914-0.39,1.187-1.187
						c-4.237-4.651-9.506-7.967-15.52-9.807C209.085,396.878,208.642,398.499,209.674,398.815L209.674,398.815z"/>
				</g>
			</g>
		</g>
		<g>
			<g>
				<path style="fill:#7DA2D9;" d="M173.803,371.994c0.765,4.397,1.019,8.883,0.758,13.339c-0.173,2.952-0.949,6.414-3.682,7.541
					c-1.911,0.788-4.178,0.061-5.753-1.276c-1.576-1.337-1.957-5.17-6.409-4.011c-4.452,1.158-2.348,11.197-4.928,17.292
					c-0.662,1.565-1.373,3.197-2.693,4.268c-1.32,1.072-3.446,1.357-4.651,0.156c-1.112-1.108-1.03-2.955-1.888-4.269
					c-1.471-2.253-5.054-1.927-7.158-0.25c-2.104,1.677-3.279,4.229-4.925,6.357c-3.908,5.052-12.07,9.493-17.066,6.239
					c-4.996-3.254-4.174-12.534-1.106-18.137c1.293-2.36,3.161-4.457,3.857-7.057c0.696-2.599-0.438-6.013-3.092-6.461
					c-1.548-0.261-3.208,0.552-4.668-0.023c-1.582-0.624-2.171-2.687-1.716-4.325c0.454-1.638,1.665-2.942,2.835-4.175
					c4.555-4.801,21.229-8.944,20.243-12.838c-0.986-3.895-10.748-1.954-12.604-2.864c-1.856-0.909-3.429-2.696-3.471-4.763
					c-0.06-2.956,2.803-5.052,5.44-6.391c3.979-2.022,8.192-3.582,12.528-4.639c1.752-0.427,3.591-0.803,5.015-1.91
					c1.423-1.107,2.263-3.216,1.332-4.761c-1.452-2.411-5.348-1.404-7.64-3.038c-2.007-1.43-2.086-4.574-0.775-6.661
					c1.311-2.087,3.604-3.329,5.859-4.324c13.232-5.833,28.139-6.161,42.598-6.39l0.011-0.058c0.003,0.007,0.003-0.014,0.006-0.015
					c0.008,0,0.016-0.001,0.023-0.001l-0.011,0.058c5.573,13.345,11.235,27.157,11.18,41.617c-0.01,2.465-0.23,5.072-1.619,7.108
					c-1.389,2.036-4.301,3.225-6.415,1.957c-2.414-1.447-3.049-5.418-5.839-5.785c-1.788-0.235-3.385,1.379-3.831,3.126
					C173.103,368.38,173.494,370.217,173.803,371.994z"/>
			</g>
			<g>
				<g>
					<path style="fill:#FFDB82;" d="M136.551,389.917c20.25-28.547,38.161-58.664,53.576-90.086c0.474-0.967-0.974-1.819-1.45-0.848
						c-15.415,31.423-33.326,61.539-53.576,90.086C134.474,389.953,135.93,390.792,136.551,389.917L136.551,389.917z"/>
				</g>
			</g>
			<g>
				<g>
					<path style="fill:#FFDB82;" d="M173.774,328.058c-8.489,0.168-16.701,1.566-24.766,4.237c-1.021,0.338-0.583,1.96,0.447,1.619
						c7.911-2.62,15.984-4.012,24.32-4.177C174.853,329.716,174.856,328.037,173.774,328.058L173.774,328.058z"/>
				</g>
			</g>
			<g>
				<g>
					<path style="fill:#FFDB82;" d="M160.28,351.321c-8.541,0.022-16.624,2.153-24.068,6.335c-0.942,0.529-0.097,1.98,0.848,1.45
						c7.212-4.052,14.951-6.084,23.22-6.106C161.36,352.998,161.362,351.318,160.28,351.321L160.28,351.321z"/>
				</g>
			</g>
			<g>
				<g>
					<path style="fill:#FFDB82;" d="M147.696,370.917c-6.145,0.582-11.976,2.248-17.494,5.012c-0.966,0.484-0.117,1.933,0.848,1.45
						c5.258-2.633,10.793-4.228,16.647-4.783C148.763,372.495,148.773,370.815,147.696,370.917L147.696,370.917z"/>
				</g>
			</g>
			<g>
				<g>
					<path style="fill:#FFDB82;" d="M173.417,329.286c3.822,6.894,6.5,14.156,8.087,21.873c0.218,1.058,1.837,0.61,1.619-0.446
						c-1.616-7.856-4.369-15.264-8.257-22.275C174.343,327.493,172.892,328.339,173.417,329.286L173.417,329.286z"/>
				</g>
			</g>
			<g>
				<g>
					<path style="fill:#FFDB82;" d="M159.419,352.977c3.27,6.519,5.307,13.38,6.105,20.627c0.117,1.063,1.798,1.074,1.679,0
						c-0.83-7.543-2.933-14.694-6.334-21.475C160.385,351.163,158.935,352.012,159.419,352.977L159.419,352.977z"/>
				</g>
			</g>
			<g>
				<g>
					<path style="fill:#FFDB82;" d="M146.92,372.11c2.272,5.564,3.057,11.386,2.221,17.346c-0.148,1.057,1.47,1.514,1.619,0.446
						c0.879-6.271,0.175-12.37-2.221-18.239C148.136,370.677,146.511,371.109,146.92,372.11L146.92,372.11z"/>
				</g>
			</g>
		</g>
		<g>
			<path style="fill:#FFC366;" d="M91.526,349.378c-1.638,4.152-3.757,8.113-6.302,11.78c-1.685,2.43-4.151,4.98-7.072,4.519
				c-2.042-0.322-3.598-2.124-4.246-4.087c-0.648-1.963,1.022-5.432-3.381-6.763c-4.403-1.33-7.837,8.335-13.214,12.194
				c-1.381,0.991-2.837,2.013-4.522,2.241c-1.685,0.227-3.649-0.637-4.051-2.289c-0.372-1.525,0.66-3.059,0.612-4.628
				c-0.083-2.689-3.31-4.278-5.98-3.942c-2.67,0.336-5.002,1.902-7.516,2.861c-5.968,2.277-15.248,1.816-17.817-3.564
				c-2.569-5.381,2.966-12.874,8.504-16.058c2.333-1.341,5.021-2.158,6.968-4.014s2.758-5.361,0.726-7.125
				c-1.185-1.029-3.026-1.2-3.972-2.452c-1.025-1.356-0.454-3.424,0.788-4.586c1.241-1.162,2.954-1.644,4.595-2.087
				c6.389-1.726,22.78,3.425,23.967-0.413c1.187-3.838-8.156-7.267-9.267-9.01c-1.111-1.743-1.522-4.088-0.481-5.873
				c1.489-2.554,5.024-2.852,7.972-2.621c4.45,0.347,8.859,1.21,13.111,2.566c1.718,0.548,3.484,1.185,5.276,0.982
				c1.792-0.204,3.607-1.567,3.617-3.37c0.016-2.814-3.834-3.984-4.939-6.573c-0.968-2.267,0.602-4.991,2.808-6.089
				c2.206-1.099,4.81-0.964,7.253-0.638c14.333,1.914,27.229,9.399,39.691,16.737l0.039-0.044c-0.001,0.008,0.01-0.011,0.012-0.009
				c0.007,0.004,0.014,0.007,0.02,0.011l-0.04,0.044c-2.194,14.294-4.556,29.034-12.137,41.348c-1.292,2.099-2.839,4.21-5.085,5.224
				c-2.246,1.014-5.351,0.512-6.495-1.671c-1.306-2.493,0.22-6.213-1.971-7.98c-1.404-1.132-3.608-0.587-4.898,0.673
				C92.811,345.929,92.188,347.7,91.526,349.378z"/>
			<g>
				<g>
					<path style="fill:#FFDB82;" d="M50.417,345.257c32.157-13.82,63.133-30.196,92.661-48.988c0.909-0.579,0.068-2.033-0.848-1.45
						c-29.528,18.792-60.504,35.168-92.661,48.988C48.579,344.233,49.433,345.68,50.417,345.257L50.417,345.257z"/>
				</g>
			</g>
			<g>
				<g>
					<path style="fill:#FFDB82;" d="M114.375,311.851c-7.322-4.28-15.079-7.366-23.342-9.279c-1.052-0.243-1.5,1.375-0.446,1.619
						c8.119,1.879,15.745,4.903,22.941,9.109C114.462,313.848,115.308,312.397,114.375,311.851L114.375,311.851z"/>
				</g>
			</g>
			<g>
				<g>
					<path style="fill:#FFDB82;" d="M90.738,324.679c-7.299-4.428-15.317-6.814-23.847-7.122c-1.081-0.039-1.079,1.64,0,1.679
						c8.27,0.298,15.926,2.602,22.999,6.892C90.817,326.691,91.662,325.24,90.738,324.679L90.738,324.679z"/>
				</g>
			</g>
			<g>
				<g>
					<path style="fill:#FFDB82;" d="M69.789,334.851c-5.549-2.704-11.396-4.311-17.546-4.827c-1.077-0.09-1.071,1.589,0,1.679
						c5.861,0.491,11.411,2.021,16.699,4.597C69.909,336.772,70.761,335.325,69.789,334.851L69.789,334.851z"/>
				</g>
			</g>
			<g>
				<g>
					<path style="fill:#FFDB82;" d="M113.444,312.738c-0.335,7.876-1.835,15.462-4.493,22.876c-0.365,1.019,1.257,1.458,1.619,0.446
						c2.712-7.563,4.213-15.301,4.553-23.322C115.169,311.657,113.49,311.659,113.444,312.738L113.444,312.738z"/>
				</g>
			</g>
			<g>
				<g>
					<path style="fill:#FFDB82;" d="M89.155,325.668c-0.605,7.271-2.446,14.179-5.543,20.785c-0.456,0.973,0.991,1.826,1.45,0.848
						c3.219-6.868,5.143-14.075,5.772-21.633C90.924,324.591,89.244,324.597,89.155,325.668L89.155,325.668z"/>
				</g>
			</g>
			<g>
				<g>
					<path style="fill:#FFDB82;" d="M68.516,335.481c-0.947,5.942-3.324,11.325-7.157,15.974c-0.682,0.828,0.499,2.022,1.187,1.187
						c4.016-4.871,6.594-10.475,7.589-16.715C70.303,334.87,68.685,334.415,68.516,335.481L68.516,335.481z"/>
				</g>
			</g>
		</g>
	</g>
	<g>
		<g>
			<path style="fill:#FFFFFF;" d="M377.824,356.958H72.856c-6.05,0-10.955-4.905-10.955-10.956V121.218l163.439-7.335l163.44,7.335
				v224.785C388.779,352.054,383.875,356.958,377.824,356.958z"/>
			<g>
				<path style="fill:#2764C0;" d="M388.779,121.218H61.9V99.19c0-5.412,4.388-9.8,9.8-9.8h307.279c5.413,0,9.8,4.388,9.8,9.8
					V121.218z"/>
			</g>
			<g>
				<path style="fill:#FFFFFF;" d="M84.688,104.373c0,2.549-2.067,4.616-4.616,4.616c-2.549,0-4.616-2.066-4.616-4.616
					c0-2.549,2.067-4.616,4.616-4.616C82.621,99.757,84.688,101.824,84.688,104.373z"/>
				<path style="fill:#6DCEAE;" d="M100.242,104.373c0,2.549-2.066,4.616-4.616,4.616c-2.549,0-4.616-2.066-4.616-4.616
					c0-2.549,2.067-4.616,4.616-4.616C98.176,99.757,100.242,101.824,100.242,104.373z"/>
				<path style="fill:#FFE79F;" d="M115.797,104.373c0,2.549-2.067,4.616-4.616,4.616c-2.549,0-4.616-2.066-4.616-4.616
					c0-2.549,2.067-4.616,4.616-4.616C113.73,99.757,115.797,101.824,115.797,104.373z"/>
			</g>
		</g>
		<g>
			<g>
				<g>
					<path style="fill:#91BAEE;" d="M293.932,154.419h2.92v7.212h-1.547v-5.84h-1.373V154.419z"/>
				</g>
				<g>
					<path style="fill:#91BAEE;" d="M339.573,157.232c0.182-0.261,0.273-0.51,0.273-0.752c0-0.237-0.079-0.439-0.237-0.601
						c-0.158-0.162-0.36-0.241-0.609-0.241c-0.455,0-0.886,0.32-1.29,0.969l-1.289-0.764c0.336-0.522,0.704-0.918,1.108-1.187
						c0.403-0.27,0.914-0.404,1.539-0.404c0.621,0,1.171,0.198,1.642,0.593c0.471,0.396,0.704,0.934,0.704,1.614
						c0,0.372-0.095,0.728-0.281,1.068c-0.19,0.34-0.538,0.776-1.048,1.306l-1.302,1.353h2.848v1.444h-5.088v-1.195l2.117-2.168
						C339.086,157.833,339.391,157.489,339.573,157.232z"/>
				</g>
				<g>
					<path style="fill:#F7A078;" d="M82.735,190.409v-1.372h4.415v1.112l-1.476,1.686c0.577,0.094,1.029,0.336,1.345,0.728
						c0.316,0.387,0.475,0.834,0.475,1.345c0,0.756-0.258,1.349-0.772,1.781c-0.51,0.431-1.167,0.645-1.966,0.645
						c-0.799,0-1.606-0.281-2.425-0.846l0.66-1.278c0.681,0.479,1.29,0.72,1.828,0.72c0.325,0,0.589-0.079,0.799-0.237
						c0.21-0.158,0.317-0.384,0.317-0.685c0-0.301-0.123-0.538-0.364-0.712c-0.242-0.178-0.574-0.265-1.001-0.265
						c-0.226,0-0.546,0.067-0.957,0.198v-1.187l1.381-1.63H82.735z"/>
				</g>
				<g>
					<path style="fill:#91BAEE;" d="M127.565,193.132v-1.258h1.547v1.258h0.815v1.396h-0.815v1.721h-1.547v-1.721h-2.9v-1.23
						l2.567-4.261h1.757l-2.449,4.095H127.565z"/>
				</g>
				<g>
					<path style="fill:#91BAEE;" d="M171.844,189.037v1.392h-2.848v1.207c0.213-0.064,0.459-0.091,0.732-0.091
						c0.696,0,1.293,0.21,1.796,0.629c0.503,0.419,0.756,0.985,0.756,1.697c0,0.712-0.261,1.302-0.78,1.765
						c-0.518,0.463-1.163,0.696-1.927,0.696c-0.977,0-1.792-0.36-2.445-1.084l0.847-1.175c0.063,0.06,0.146,0.139,0.249,0.226
						c0.103,0.091,0.292,0.209,0.566,0.356c0.277,0.15,0.55,0.222,0.827,0.222c0.273,0,0.519-0.083,0.732-0.245
						c0.213-0.166,0.32-0.411,0.32-0.736c0-0.32-0.115-0.57-0.348-0.748c-0.23-0.174-0.526-0.261-0.89-0.261
						c-0.364,0-0.787,0.131-1.27,0.392l-0.673-0.724v-3.517H171.844z"/>
				</g>
				<g>
					<path style="fill:#91BAEE;" d="M212.606,190.255c-0.447,0-0.795,0.147-1.036,0.447c-0.246,0.301-0.396,0.708-0.451,1.222
						c0.447-0.289,0.922-0.431,1.424-0.431c0.677,0,1.239,0.217,1.689,0.661c0.451,0.439,0.677,1.025,0.677,1.757
						c0,0.736-0.245,1.322-0.728,1.76c-0.486,0.439-1.096,0.661-1.831,0.661c-0.51,0-0.954-0.099-1.33-0.293
						c-0.376-0.198-0.664-0.471-0.87-0.823c-0.412-0.68-0.621-1.531-0.621-2.56c0-0.66,0.083-1.238,0.245-1.737
						c0.159-0.498,0.384-0.894,0.665-1.183c0.55-0.578,1.23-0.867,2.041-0.867c0.34,0,0.661,0.052,0.965,0.15
						c0.308,0.099,0.542,0.202,0.708,0.305c0.166,0.103,0.348,0.234,0.546,0.392l-0.763,1.135c-0.04-0.043-0.099-0.095-0.178-0.166
						c-0.079-0.067-0.238-0.158-0.471-0.269C213.053,190.31,212.823,190.255,212.606,190.255z M212.392,192.854
						c-0.32,0-0.585,0.095-0.803,0.285c-0.218,0.19-0.324,0.436-0.324,0.736c0,0.305,0.103,0.562,0.308,0.779
						c0.206,0.217,0.463,0.325,0.776,0.325c0.308,0,0.565-0.095,0.771-0.289c0.206-0.19,0.309-0.439,0.309-0.748
						c0-0.305-0.091-0.562-0.277-0.771C212.966,192.961,212.713,192.854,212.392,192.854z"/>
				</g>
				<g>
					<path style="fill:#91BAEE;" d="M251.766,191.347v-2.31h5.214v1.218l-2.92,5.994h-1.757l2.785-5.831h-1.816v0.93H251.766z"/>
				</g>
				<g>
					<path style="fill:#91BAEE;" d="M295.135,189.436c0.479-0.376,1.076-0.566,1.792-0.566c0.716,0,1.309,0.19,1.784,0.566
						c0.475,0.38,0.712,0.847,0.712,1.401c0,0.554-0.214,1.029-0.641,1.428c0.601,0.463,0.898,1.068,0.898,1.816
						c0,0.633-0.253,1.167-0.763,1.602c-0.51,0.431-1.171,0.649-1.99,0.649c-0.819,0-1.484-0.218-1.994-0.649
						c-0.51-0.435-0.764-0.969-0.764-1.602c0-0.748,0.301-1.353,0.898-1.816c-0.432-0.404-0.649-0.882-0.649-1.432
						C294.419,190.283,294.656,189.816,295.135,189.436z M296.14,194.75c0.241,0.162,0.502,0.242,0.788,0.242
						c0.281,0,0.542-0.079,0.783-0.242c0.242-0.162,0.36-0.4,0.36-0.708c0-0.309-0.115-0.546-0.348-0.712
						c-0.237-0.166-0.502-0.249-0.795-0.249c-0.297,0-0.562,0.083-0.796,0.249c-0.234,0.166-0.352,0.404-0.352,0.712
						C295.78,194.35,295.898,194.588,296.14,194.75z M296.239,191.596c0.198,0.162,0.427,0.245,0.689,0.245
						c0.261,0,0.49-0.083,0.684-0.245c0.198-0.166,0.293-0.372,0.293-0.617c0-0.241-0.095-0.447-0.289-0.613
						c-0.19-0.163-0.423-0.246-0.688-0.246c-0.269,0-0.499,0.083-0.693,0.246c-0.194,0.166-0.289,0.372-0.289,0.613
						C295.946,191.225,296.045,191.43,296.239,191.596z"/>
				</g>
				<g>
					<path style="fill:#91BAEE;" d="M338.782,194.951c0.447,0,0.795-0.15,1.036-0.451c0.245-0.301,0.396-0.708,0.451-1.223
						c-0.443,0.297-0.918,0.443-1.424,0.443c-0.677,0-1.238-0.222-1.689-0.665c-0.451-0.443-0.677-1.032-0.677-1.76
						s0.246-1.318,0.728-1.761c0.487-0.443,1.096-0.665,1.832-0.665c0.51,0,0.953,0.099,1.329,0.293
						c0.372,0.198,0.668,0.471,0.882,0.823c0.403,0.681,0.609,1.535,0.609,2.56c0,0.661-0.083,1.238-0.245,1.737
						c-0.162,0.498-0.38,0.894-0.652,1.183c-0.566,0.577-1.25,0.866-2.057,0.866c-0.337,0-0.657-0.052-0.97-0.15
						c-0.309-0.099-0.542-0.198-0.7-0.297c-0.158-0.103-0.34-0.23-0.546-0.387l0.803-1.136c0.048,0.04,0.111,0.095,0.19,0.158
						c0.079,0.067,0.233,0.154,0.459,0.265C338.37,194.896,338.584,194.951,338.782,194.951z M339.003,192.348
						c0.32,0,0.586-0.091,0.799-0.277c0.214-0.186,0.321-0.432,0.321-0.736c0-0.301-0.103-0.562-0.309-0.783
						c-0.206-0.217-0.463-0.329-0.775-0.329c-0.309,0-0.562,0.099-0.756,0.293c-0.198,0.198-0.297,0.447-0.297,0.748
						c0,0.305,0.091,0.562,0.269,0.771C338.433,192.245,338.683,192.348,339.003,192.348z"/>
				</g>
				<g>
					<path style="fill:#F7A078;" d="M82.358,223.654h2.92v7.212H83.73v-5.839h-1.373V223.654z"/>
					<path style="fill:#F7A078;" d="M89.756,230.95c-0.997,0-1.745-0.34-2.239-1.017c-0.495-0.676-0.744-1.583-0.744-2.714
						c0-1.132,0.249-2.038,0.744-2.714c0.495-0.677,1.242-1.017,2.239-1.017c0.997,0,1.745,0.34,2.239,1.017
						c0.498,0.676,0.744,1.582,0.744,2.714c0,1.131-0.246,2.038-0.744,2.714C91.501,230.61,90.753,230.95,89.756,230.95z
						 M88.696,225.478c-0.229,0.443-0.344,1.025-0.344,1.745c0,0.724,0.115,1.306,0.344,1.745c0.226,0.443,0.582,0.661,1.06,0.661
						c0.483,0,0.839-0.218,1.064-0.661c0.226-0.439,0.34-1.021,0.34-1.745c0-0.72-0.115-1.302-0.34-1.745
						c-0.225-0.439-0.581-0.657-1.064-0.657C89.277,224.822,88.921,225.039,88.696,225.478z"/>
				</g>
				<g>
					<path style="fill:#91BAEE;" d="M124.687,223.654h2.92v7.212h-1.547v-5.839h-1.372V223.654z"/>
					<path style="fill:#91BAEE;" d="M128.848,223.654h2.92v7.212h-1.547v-5.839h-1.373V223.654z"/>
				</g>
				<g>
					<path style="fill:#91BAEE;" d="M167.015,223.654h2.92v7.212h-1.547v-5.839h-1.373V223.654z"/>
					<path style="fill:#91BAEE;" d="M174.485,226.468c0.182-0.261,0.273-0.51,0.273-0.752c0-0.237-0.079-0.439-0.238-0.601
						c-0.158-0.162-0.36-0.241-0.609-0.241c-0.455,0-0.886,0.32-1.29,0.969l-1.29-0.764c0.336-0.522,0.704-0.918,1.108-1.187
						c0.404-0.269,0.914-0.403,1.539-0.403c0.621,0,1.171,0.198,1.642,0.594c0.471,0.396,0.704,0.934,0.704,1.614
						c0,0.372-0.095,0.728-0.281,1.068c-0.19,0.34-0.538,0.775-1.048,1.306l-1.302,1.353h2.849v1.444h-5.088v-1.195l2.117-2.168
						C173.998,227.069,174.303,226.725,174.485,226.468z"/>
				</g>
				<g>
					<path style="fill:#91BAEE;" d="M209.348,223.654h2.92v7.212h-1.547v-5.839h-1.373V223.654z"/>
					<path style="fill:#91BAEE;" d="M213.961,225.027v-1.373h4.415v1.112l-1.476,1.685c0.578,0.095,1.029,0.336,1.345,0.728
						c0.316,0.388,0.475,0.835,0.475,1.345c0,0.756-0.258,1.349-0.772,1.781c-0.51,0.431-1.167,0.645-1.966,0.645
						c-0.799,0-1.606-0.281-2.426-0.847l0.661-1.278c0.681,0.479,1.29,0.72,1.828,0.72c0.325,0,0.589-0.08,0.799-0.238
						c0.21-0.159,0.316-0.384,0.316-0.685s-0.123-0.538-0.364-0.712c-0.242-0.178-0.574-0.265-1.001-0.265
						c-0.226,0-0.546,0.067-0.957,0.198v-1.187l1.381-1.63H213.961z"/>
				</g>
				<g>
					<path style="fill:#91BAEE;" d="M251.677,223.654h2.92v7.212h-1.547v-5.839h-1.373V223.654z"/>
					<path style="fill:#91BAEE;" d="M258.791,227.749v-1.258h1.547v1.258h0.815v1.397h-0.815v1.721h-1.547v-1.721h-2.9v-1.231
						l2.568-4.261h1.757l-2.449,4.095H258.791z"/>
				</g>
				<g>
					<path style="fill:#91BAEE;" d="M294.01,223.654h2.92v7.212h-1.547v-5.839h-1.373V223.654z"/>
					<path style="fill:#91BAEE;" d="M303.07,223.654v1.393h-2.849v1.207c0.214-0.064,0.459-0.091,0.732-0.091
						c0.696,0,1.294,0.209,1.796,0.629c0.503,0.419,0.756,0.985,0.756,1.697c0,0.713-0.261,1.302-0.779,1.765
						c-0.518,0.463-1.163,0.696-1.927,0.696c-0.977,0-1.793-0.36-2.445-1.084l0.846-1.175c0.063,0.06,0.146,0.139,0.25,0.226
						c0.103,0.091,0.292,0.21,0.565,0.356c0.277,0.15,0.55,0.221,0.827,0.221c0.273,0,0.518-0.083,0.732-0.245
						c0.213-0.166,0.32-0.412,0.32-0.736c0-0.321-0.115-0.57-0.348-0.748c-0.229-0.174-0.526-0.261-0.89-0.261
						c-0.364,0-0.787,0.131-1.27,0.392l-0.672-0.724v-3.517H303.07z"/>
				</g>
				<g>
					<path style="fill:#91BAEE;" d="M336.339,223.654h2.92v7.212h-1.547v-5.839h-1.373V223.654z"/>
					<path style="fill:#91BAEE;" d="M343.832,224.873c-0.447,0-0.796,0.146-1.037,0.447c-0.245,0.301-0.396,0.708-0.451,1.222
						c0.447-0.288,0.922-0.431,1.424-0.431c0.677,0,1.238,0.217,1.689,0.661c0.451,0.439,0.677,1.025,0.677,1.757
						c0,0.736-0.246,1.321-0.728,1.76c-0.486,0.439-1.096,0.661-1.832,0.661c-0.51,0-0.953-0.099-1.329-0.292
						c-0.376-0.198-0.664-0.471-0.87-0.823c-0.412-0.68-0.621-1.531-0.621-2.56c0-0.661,0.083-1.238,0.245-1.737
						c0.158-0.499,0.384-0.894,0.665-1.183c0.55-0.578,1.23-0.867,2.041-0.867c0.34,0,0.661,0.051,0.965,0.15
						c0.309,0.099,0.542,0.202,0.709,0.305c0.166,0.103,0.348,0.234,0.546,0.392l-0.764,1.135c-0.039-0.044-0.099-0.095-0.178-0.166
						c-0.079-0.067-0.237-0.159-0.471-0.269C344.279,224.928,344.05,224.873,343.832,224.873z M343.618,227.472
						c-0.32,0-0.585,0.095-0.803,0.285c-0.218,0.19-0.324,0.435-0.324,0.736c0,0.305,0.103,0.562,0.308,0.78
						c0.206,0.217,0.463,0.324,0.775,0.324c0.309,0,0.566-0.095,0.772-0.289c0.206-0.19,0.309-0.439,0.309-0.748
						c0-0.304-0.091-0.562-0.277-0.771C344.192,227.579,343.939,227.472,343.618,227.472z"/>
				</g>
				<g>
					<path style="fill:#F7A078;" d="M82.358,258.272h2.92v7.213H83.73v-5.84h-1.373V258.272z"/>
					<path style="fill:#F7A078;" d="M86.682,260.583v-2.311h5.211v1.219l-2.92,5.994H87.22l2.785-5.832h-1.816v0.93H86.682z"/>
				</g>
				<g>
					<path style="fill:#91BAEE;" d="M124.687,258.272h2.92v7.213h-1.547v-5.84h-1.372V258.272z"/>
					<path style="fill:#91BAEE;" d="M130.051,258.672c0.475-0.376,1.072-0.566,1.788-0.566c0.716,0,1.31,0.19,1.784,0.566
						c0.475,0.38,0.712,0.847,0.712,1.401c0,0.554-0.209,1.029-0.637,1.428c0.597,0.463,0.898,1.068,0.898,1.816
						c0,0.633-0.257,1.167-0.764,1.602c-0.51,0.431-1.175,0.648-1.994,0.648c-0.819,0-1.483-0.217-1.99-0.648
						c-0.51-0.436-0.764-0.97-0.764-1.602c0-0.748,0.297-1.353,0.898-1.816c-0.435-0.404-0.653-0.882-0.653-1.432
						C129.331,259.519,129.572,259.052,130.051,258.672z M131.056,263.985c0.242,0.162,0.503,0.241,0.784,0.241
						c0.281,0,0.546-0.079,0.784-0.241c0.241-0.162,0.364-0.4,0.364-0.708c0-0.309-0.119-0.546-0.352-0.712
						c-0.233-0.166-0.499-0.249-0.795-0.249c-0.297,0-0.562,0.083-0.795,0.249c-0.233,0.166-0.348,0.404-0.348,0.712
						C130.696,263.586,130.815,263.823,131.056,263.985z M131.156,260.832c0.193,0.162,0.423,0.245,0.684,0.245
						c0.261,0,0.491-0.083,0.688-0.245c0.194-0.166,0.293-0.372,0.293-0.618c0-0.241-0.095-0.447-0.289-0.613
						c-0.194-0.162-0.423-0.245-0.692-0.245c-0.269,0-0.498,0.083-0.692,0.245c-0.19,0.166-0.289,0.372-0.289,0.613
						C130.858,260.46,130.957,260.666,131.156,260.832z"/>
				</g>
				<g>
					<path style="fill:#91BAEE;" d="M167.015,258.272h2.92v7.213h-1.547v-5.84h-1.373V258.272z"/>
					<path style="fill:#91BAEE;" d="M173.694,264.187c0.447,0,0.796-0.15,1.037-0.451c0.245-0.301,0.395-0.708,0.451-1.223
						c-0.443,0.297-0.918,0.443-1.424,0.443c-0.677,0-1.238-0.222-1.689-0.665c-0.451-0.443-0.677-1.033-0.677-1.76
						c0-0.728,0.245-1.318,0.728-1.761c0.486-0.443,1.096-0.665,1.832-0.665c0.51,0,0.954,0.099,1.329,0.293
						c0.372,0.198,0.669,0.471,0.882,0.823c0.403,0.681,0.609,1.535,0.609,2.56c0,0.66-0.083,1.238-0.245,1.737
						c-0.162,0.499-0.38,0.894-0.653,1.183c-0.566,0.577-1.25,0.866-2.057,0.866c-0.336,0-0.657-0.051-0.97-0.15
						c-0.308-0.099-0.542-0.198-0.7-0.296c-0.158-0.103-0.34-0.23-0.546-0.388l0.803-1.136c0.047,0.04,0.11,0.095,0.189,0.159
						c0.079,0.067,0.234,0.154,0.459,0.265C173.282,264.132,173.496,264.187,173.694,264.187z M173.915,261.584
						c0.321,0,0.586-0.091,0.799-0.277c0.214-0.186,0.321-0.432,0.321-0.736c0-0.301-0.103-0.562-0.309-0.783
						c-0.206-0.217-0.463-0.329-0.775-0.329c-0.309,0-0.562,0.099-0.756,0.293c-0.198,0.198-0.297,0.447-0.297,0.748
						c0,0.304,0.091,0.562,0.269,0.772C173.346,261.481,173.595,261.584,173.915,261.584z"/>
				</g>
				<g>
					<path style="fill:#91BAEE;" d="M212.656,261.085c0.182-0.261,0.273-0.51,0.273-0.752c0-0.237-0.08-0.439-0.238-0.601
						c-0.158-0.162-0.36-0.242-0.609-0.242c-0.455,0-0.886,0.321-1.29,0.97l-1.29-0.764c0.336-0.522,0.704-0.918,1.108-1.187
						c0.404-0.269,0.914-0.404,1.539-0.404c0.621,0,1.171,0.198,1.642,0.594c0.471,0.396,0.704,0.934,0.704,1.615
						c0,0.371-0.094,0.728-0.281,1.068c-0.19,0.341-0.538,0.776-1.049,1.306l-1.302,1.353h2.849v1.444h-5.088v-1.195l2.117-2.168
						C212.169,261.687,212.474,261.343,212.656,261.085z"/>
					<path style="fill:#91BAEE;" d="M218.832,265.568c-0.997,0-1.745-0.34-2.239-1.017c-0.495-0.676-0.744-1.582-0.744-2.714
						c0-1.131,0.249-2.037,0.744-2.714c0.494-0.677,1.242-1.017,2.239-1.017c0.997,0,1.745,0.34,2.239,1.017
						c0.499,0.677,0.744,1.583,0.744,2.714c0,1.132-0.245,2.038-0.744,2.714C220.576,265.228,219.829,265.568,218.832,265.568z
						 M217.771,260.096c-0.23,0.443-0.344,1.025-0.344,1.745c0,0.724,0.115,1.306,0.344,1.745c0.225,0.443,0.581,0.661,1.06,0.661
						c0.483,0,0.839-0.218,1.064-0.661c0.226-0.439,0.34-1.021,0.34-1.745c0-0.72-0.115-1.302-0.34-1.745
						c-0.226-0.439-0.582-0.657-1.064-0.657C218.353,259.439,217.997,259.657,217.771,260.096z"/>
				</g>
				<g>
					<path style="fill:#91BAEE;" d="M254.985,261.085c0.182-0.261,0.273-0.51,0.273-0.752c0-0.237-0.079-0.439-0.237-0.601
						c-0.158-0.162-0.36-0.242-0.609-0.242c-0.451,0-0.882,0.321-1.29,0.97l-1.29-0.764c0.336-0.522,0.708-0.918,1.112-1.187
						c0.399-0.269,0.914-0.404,1.535-0.404c0.625,0,1.171,0.198,1.642,0.594c0.471,0.396,0.708,0.934,0.708,1.615
						c0,0.371-0.095,0.728-0.285,1.068c-0.19,0.341-0.538,0.776-1.048,1.306l-1.298,1.353h2.849v1.444h-5.088v-1.195l2.113-2.168
						C254.498,261.687,254.803,261.343,254.985,261.085z"/>
					<path style="fill:#91BAEE;" d="M257.924,258.272h2.92v7.213h-1.547v-5.84h-1.373V258.272z"/>
				</g>
				<g>
					<path style="fill:#91BAEE;" d="M297.317,261.085c0.182-0.261,0.273-0.51,0.273-0.752c0-0.237-0.079-0.439-0.237-0.601
						c-0.158-0.162-0.36-0.242-0.609-0.242c-0.455,0-0.887,0.321-1.29,0.97l-1.29-0.764c0.336-0.522,0.704-0.918,1.108-1.187
						c0.404-0.269,0.914-0.404,1.539-0.404c0.621,0,1.171,0.198,1.642,0.594c0.471,0.396,0.704,0.934,0.704,1.615
						c0,0.371-0.095,0.728-0.281,1.068c-0.19,0.341-0.538,0.776-1.049,1.306l-1.302,1.353h2.848v1.444h-5.088v-1.195l2.117-2.168
						C296.831,261.687,297.136,261.343,297.317,261.085z"/>
					<path style="fill:#91BAEE;" d="M303.56,261.085c0.182-0.261,0.273-0.51,0.273-0.752c0-0.237-0.079-0.439-0.237-0.601
						c-0.159-0.162-0.36-0.242-0.609-0.242c-0.451,0-0.882,0.321-1.29,0.97l-1.29-0.764c0.336-0.522,0.708-0.918,1.112-1.187
						c0.4-0.269,0.914-0.404,1.535-0.404c0.625,0,1.171,0.198,1.642,0.594c0.47,0.396,0.708,0.934,0.708,1.615
						c0,0.371-0.095,0.728-0.285,1.068c-0.19,0.341-0.538,0.776-1.049,1.306l-1.298,1.353h2.849v1.444h-5.088v-1.195l2.113-2.168
						C303.074,261.687,303.379,261.343,303.56,261.085z"/>
				</g>
				<g>
					<path style="fill:#91BAEE;" d="M339.646,261.085c0.182-0.261,0.273-0.51,0.273-0.752c0-0.237-0.079-0.439-0.237-0.601
						c-0.159-0.162-0.36-0.242-0.609-0.242c-0.455,0-0.886,0.321-1.289,0.97l-1.29-0.764c0.336-0.522,0.704-0.918,1.108-1.187
						c0.403-0.269,0.914-0.404,1.539-0.404c0.621,0,1.171,0.198,1.642,0.594c0.471,0.396,0.704,0.934,0.704,1.615
						c0,0.371-0.095,0.728-0.281,1.068c-0.19,0.341-0.538,0.776-1.048,1.306l-1.302,1.353h2.849v1.444h-5.088v-1.195l2.116-2.168
						C339.16,261.687,339.464,261.343,339.646,261.085z"/>
					<path style="fill:#91BAEE;" d="M343.037,259.645v-1.373h4.416v1.112l-1.476,1.686c0.578,0.095,1.029,0.336,1.345,0.728
						c0.317,0.388,0.475,0.834,0.475,1.345c0,0.756-0.257,1.349-0.771,1.78c-0.511,0.432-1.167,0.645-1.966,0.645
						c-0.799,0-1.606-0.281-2.426-0.847l0.661-1.278c0.68,0.479,1.29,0.72,1.828,0.72c0.324,0,0.589-0.079,0.799-0.237
						c0.21-0.158,0.317-0.384,0.317-0.685c0-0.301-0.123-0.538-0.364-0.712c-0.241-0.178-0.574-0.265-1.001-0.265
						c-0.226,0-0.546,0.067-0.958,0.198v-1.187l1.381-1.63H343.037z"/>
				</g>
				<g>
					<path style="fill:#F7A078;" d="M85.665,295.703c0.182-0.261,0.273-0.51,0.273-0.752c0-0.237-0.079-0.439-0.237-0.601
						c-0.159-0.162-0.36-0.241-0.609-0.241c-0.455,0-0.887,0.32-1.29,0.969l-1.29-0.763c0.337-0.522,0.704-0.918,1.108-1.187
						c0.404-0.269,0.914-0.403,1.539-0.403c0.621,0,1.171,0.198,1.642,0.593c0.471,0.396,0.705,0.934,0.705,1.614
						c0,0.372-0.095,0.728-0.281,1.068c-0.189,0.34-0.538,0.775-1.048,1.306l-1.301,1.353h2.848v1.444h-5.088v-1.195l2.117-2.168
						C85.178,296.305,85.483,295.961,85.665,295.703z"/>
					<path style="fill:#F7A078;" d="M91.552,296.985v-1.258h1.551v1.258h0.815v1.396h-0.815v1.721h-1.551v-1.721h-2.9v-1.23
						l2.571-4.261h1.753l-2.445,4.095H91.552z"/>
				</g>
				<g>
					<path style="fill:#91BAEE;" d="M127.994,295.703c0.182-0.261,0.273-0.51,0.273-0.752c0-0.237-0.08-0.439-0.237-0.601
						c-0.158-0.162-0.36-0.241-0.609-0.241c-0.451,0-0.882,0.32-1.29,0.969l-1.289-0.763c0.336-0.522,0.708-0.918,1.112-1.187
						c0.399-0.269,0.914-0.403,1.535-0.403c0.625,0,1.171,0.198,1.642,0.593c0.471,0.396,0.708,0.934,0.708,1.614
						c0,0.372-0.095,0.728-0.285,1.068c-0.19,0.34-0.538,0.775-1.048,1.306l-1.298,1.353h2.849v1.444h-5.088v-1.195l2.113-2.168
						C127.507,296.305,127.812,295.961,127.994,295.703z"/>
					<path style="fill:#91BAEE;" d="M135.835,292.89v1.393h-2.848v1.207c0.213-0.063,0.455-0.091,0.732-0.091
						c0.696,0,1.294,0.209,1.796,0.629c0.503,0.419,0.752,0.985,0.752,1.697c0,0.712-0.257,1.302-0.779,1.765
						c-0.518,0.463-1.159,0.696-1.923,0.696c-0.977,0-1.792-0.36-2.445-1.084l0.843-1.175c0.063,0.06,0.146,0.139,0.249,0.225
						c0.103,0.091,0.293,0.21,0.57,0.356c0.273,0.15,0.55,0.221,0.823,0.221c0.277,0,0.523-0.083,0.736-0.245
						c0.21-0.166,0.316-0.412,0.316-0.736c0-0.321-0.114-0.57-0.344-0.748c-0.23-0.174-0.53-0.261-0.894-0.261
						c-0.364,0-0.787,0.131-1.27,0.392l-0.669-0.724v-3.517H135.835z"/>
				</g>
				<g>
					<path style="fill:#91BAEE;" d="M170.323,295.703c0.182-0.261,0.273-0.51,0.273-0.752c0-0.237-0.079-0.439-0.237-0.601
						c-0.158-0.162-0.36-0.241-0.609-0.241c-0.451,0-0.882,0.32-1.29,0.969l-1.29-0.763c0.336-0.522,0.708-0.918,1.112-1.187
						c0.4-0.269,0.914-0.403,1.535-0.403c0.625,0,1.171,0.198,1.642,0.593c0.471,0.396,0.708,0.934,0.708,1.614
						c0,0.372-0.095,0.728-0.285,1.068c-0.19,0.34-0.538,0.775-1.049,1.306l-1.298,1.353h2.848v1.444h-5.088v-1.195l2.113-2.168
						C169.836,296.305,170.141,295.961,170.323,295.703z"/>
					<path style="fill:#91BAEE;" d="M176.594,294.109c-0.447,0-0.791,0.147-1.036,0.447c-0.246,0.301-0.396,0.708-0.447,1.222
						c0.447-0.289,0.922-0.431,1.425-0.431c0.672,0,1.234,0.217,1.685,0.661c0.451,0.439,0.676,1.025,0.676,1.757
						c0,0.736-0.241,1.321-0.728,1.76c-0.486,0.439-1.096,0.661-1.832,0.661c-0.51,0-0.95-0.099-1.326-0.292
						c-0.376-0.198-0.664-0.471-0.874-0.823c-0.411-0.68-0.617-1.531-0.617-2.559c0-0.661,0.079-1.238,0.241-1.737
						c0.162-0.499,0.384-0.894,0.665-1.183c0.554-0.578,1.234-0.867,2.046-0.867c0.336,0,0.657,0.051,0.965,0.15
						c0.305,0.099,0.542,0.202,0.708,0.304c0.162,0.103,0.344,0.233,0.546,0.392l-0.763,1.135c-0.044-0.044-0.103-0.095-0.182-0.166
						c-0.079-0.068-0.233-0.159-0.471-0.269C177.041,294.164,176.815,294.109,176.594,294.109z M176.384,296.708
						c-0.321,0-0.59,0.095-0.807,0.285c-0.214,0.19-0.324,0.435-0.324,0.736c0,0.305,0.103,0.562,0.309,0.779
						c0.209,0.218,0.466,0.324,0.775,0.324c0.308,0,0.57-0.094,0.776-0.289c0.206-0.189,0.309-0.439,0.309-0.747
						c0-0.305-0.095-0.562-0.277-0.772C176.958,296.815,176.705,296.708,176.384,296.708z"/>
				</g>
				<g>
					<path style="fill:#91BAEE;" d="M212.656,295.703c0.182-0.261,0.273-0.51,0.273-0.752c0-0.237-0.08-0.439-0.238-0.601
						c-0.158-0.162-0.36-0.241-0.609-0.241c-0.455,0-0.886,0.32-1.29,0.969l-1.29-0.763c0.336-0.522,0.704-0.918,1.108-1.187
						c0.404-0.269,0.914-0.403,1.539-0.403c0.621,0,1.171,0.198,1.642,0.593c0.471,0.396,0.704,0.934,0.704,1.614
						c0,0.372-0.094,0.728-0.281,1.068c-0.19,0.34-0.538,0.775-1.049,1.306l-1.302,1.353h2.849v1.444h-5.088v-1.195l2.117-2.168
						C212.169,296.305,212.474,295.961,212.656,295.703z"/>
					<path style="fill:#91BAEE;" d="M215.757,295.201v-2.311h5.21v1.219l-2.92,5.994h-1.753l2.785-5.832h-1.816v0.93H215.757z"/>
				</g>
				<g>
					<path style="fill:#91BAEE;" d="M254.985,295.703c0.182-0.261,0.273-0.51,0.273-0.752c0-0.237-0.079-0.439-0.237-0.601
						c-0.158-0.162-0.36-0.241-0.609-0.241c-0.451,0-0.882,0.32-1.29,0.969l-1.29-0.763c0.336-0.522,0.708-0.918,1.112-1.187
						c0.399-0.269,0.914-0.403,1.535-0.403c0.625,0,1.171,0.198,1.642,0.593c0.471,0.396,0.708,0.934,0.708,1.614
						c0,0.372-0.095,0.728-0.285,1.068c-0.19,0.34-0.538,0.775-1.048,1.306l-1.298,1.353h2.849v1.444h-5.088v-1.195l2.113-2.168
						C254.498,296.305,254.803,295.961,254.985,295.703z"/>
					<path style="fill:#91BAEE;" d="M259.127,293.29c0.475-0.376,1.072-0.566,1.788-0.566c0.716,0,1.309,0.19,1.784,0.566
						c0.475,0.38,0.712,0.847,0.712,1.401c0,0.554-0.21,1.029-0.637,1.428c0.597,0.463,0.898,1.069,0.898,1.816
						c0,0.633-0.257,1.167-0.763,1.602c-0.51,0.431-1.175,0.649-1.994,0.649c-0.819,0-1.484-0.217-1.99-0.649
						c-0.51-0.435-0.763-0.969-0.763-1.602c0-0.748,0.296-1.353,0.898-1.816c-0.436-0.403-0.653-0.882-0.653-1.432
						C258.407,294.137,258.648,293.67,259.127,293.29z M260.132,298.603c0.241,0.162,0.502,0.241,0.783,0.241
						c0.281,0,0.546-0.079,0.783-0.241c0.241-0.162,0.364-0.399,0.364-0.708c0-0.309-0.119-0.546-0.352-0.712
						c-0.234-0.166-0.499-0.249-0.795-0.249c-0.297,0-0.562,0.083-0.795,0.249c-0.233,0.166-0.348,0.403-0.348,0.712
						C259.772,298.204,259.89,298.441,260.132,298.603z M260.231,295.45c0.194,0.162,0.423,0.245,0.685,0.245
						c0.261,0,0.491-0.083,0.688-0.245c0.193-0.166,0.293-0.372,0.293-0.617c0-0.241-0.095-0.447-0.289-0.613
						c-0.194-0.163-0.423-0.245-0.692-0.245c-0.269,0-0.499,0.083-0.692,0.245c-0.19,0.166-0.289,0.372-0.289,0.613
						C259.934,295.078,260.033,295.284,260.231,295.45z"/>
				</g>
				<g>
					<path style="fill:#91BAEE;" d="M297.317,295.703c0.182-0.261,0.273-0.51,0.273-0.752c0-0.237-0.079-0.439-0.237-0.601
						c-0.158-0.162-0.36-0.241-0.609-0.241c-0.455,0-0.887,0.32-1.29,0.969l-1.29-0.763c0.336-0.522,0.704-0.918,1.108-1.187
						c0.404-0.269,0.914-0.403,1.539-0.403c0.621,0,1.171,0.198,1.642,0.593c0.471,0.396,0.704,0.934,0.704,1.614
						c0,0.372-0.095,0.728-0.281,1.068c-0.19,0.34-0.538,0.775-1.049,1.306l-1.302,1.353h2.848v1.444h-5.088v-1.195l2.117-2.168
						C296.831,296.305,297.136,295.961,297.317,295.703z"/>
					<path style="fill:#91BAEE;" d="M302.773,298.805c0.447,0,0.791-0.15,1.036-0.451c0.245-0.301,0.392-0.708,0.447-1.223
						c-0.439,0.297-0.914,0.443-1.425,0.443c-0.672,0-1.234-0.222-1.685-0.665c-0.451-0.443-0.677-1.033-0.677-1.76
						c0-0.728,0.242-1.318,0.728-1.761c0.483-0.443,1.096-0.665,1.832-0.665c0.51,0,0.949,0.099,1.325,0.293
						c0.376,0.198,0.669,0.471,0.883,0.823c0.407,0.681,0.609,1.535,0.609,2.56c0,0.661-0.079,1.238-0.242,1.737
						c-0.162,0.498-0.38,0.894-0.657,1.183c-0.566,0.578-1.25,0.866-2.053,0.866c-0.337,0-0.661-0.051-0.97-0.15
						c-0.313-0.099-0.546-0.198-0.704-0.297c-0.159-0.103-0.34-0.23-0.546-0.388l0.807-1.135c0.047,0.04,0.111,0.095,0.19,0.158
						c0.079,0.067,0.233,0.154,0.459,0.265C302.358,298.75,302.572,298.805,302.773,298.805z M302.995,296.202
						c0.32,0,0.585-0.091,0.799-0.277c0.214-0.186,0.32-0.431,0.32-0.736c0-0.301-0.103-0.562-0.308-0.783
						c-0.21-0.218-0.467-0.329-0.776-0.329c-0.309,0-0.562,0.099-0.76,0.293c-0.194,0.198-0.293,0.447-0.293,0.747
						c0,0.305,0.087,0.562,0.269,0.772C302.425,296.099,302.674,296.202,302.995,296.202z"/>
				</g>
				<g>
					<path style="fill:#91BAEE;" d="M336.79,294.263v-1.373h4.42v1.112l-1.476,1.685c0.578,0.095,1.025,0.336,1.342,0.728
						c0.316,0.388,0.474,0.835,0.474,1.345c0,0.756-0.257,1.349-0.767,1.78c-0.515,0.431-1.171,0.645-1.967,0.645
						c-0.799,0-1.606-0.281-2.425-0.847l0.661-1.278c0.68,0.479,1.29,0.72,1.824,0.72c0.324,0,0.59-0.079,0.803-0.237
						c0.21-0.158,0.313-0.383,0.313-0.684s-0.119-0.538-0.36-0.712c-0.242-0.178-0.574-0.265-1.001-0.265
						c-0.229,0-0.546,0.067-0.961,0.198v-1.187l1.385-1.63H336.79z"/>
					<path style="fill:#91BAEE;" d="M345.676,300.186c-0.997,0-1.745-0.34-2.239-1.017c-0.495-0.676-0.744-1.583-0.744-2.714
						c0-1.132,0.249-2.038,0.744-2.714c0.494-0.677,1.242-1.017,2.239-1.017c0.997,0,1.745,0.34,2.239,1.017
						c0.499,0.676,0.744,1.582,0.744,2.714c0,1.131-0.245,2.038-0.744,2.714C347.421,299.845,346.673,300.186,345.676,300.186z
						 M344.616,294.714c-0.23,0.443-0.344,1.025-0.344,1.745c0,0.724,0.115,1.306,0.344,1.745c0.225,0.443,0.581,0.66,1.06,0.66
						c0.483,0,0.839-0.217,1.064-0.66c0.226-0.439,0.34-1.021,0.34-1.745c0-0.72-0.115-1.302-0.34-1.745
						c-0.226-0.439-0.582-0.657-1.064-0.657C345.197,294.057,344.841,294.275,344.616,294.714z"/>
				</g>
			</g>
			<g>
				
					<rect x="78.787" y="185.225" style="fill:none;stroke:#D3E3F8;stroke-width:0.6695;stroke-linecap:round;stroke-linejoin:round;stroke-miterlimit:10;" width="42.11" height="34.957"/>
				
					<rect x="120.897" y="185.225" style="fill:none;stroke:#D3E3F8;stroke-width:0.6695;stroke-linecap:round;stroke-linejoin:round;stroke-miterlimit:10;" width="42.11" height="34.957"/>
				
					<rect x="163.007" y="185.225" style="fill:none;stroke:#D3E3F8;stroke-width:0.6695;stroke-linecap:round;stroke-linejoin:round;stroke-miterlimit:10;" width="42.11" height="34.957"/>
				
					<rect x="205.118" y="185.225" style="fill:none;stroke:#D3E3F8;stroke-width:0.6695;stroke-linecap:round;stroke-linejoin:round;stroke-miterlimit:10;" width="42.11" height="34.957"/>
				
					<rect x="247.228" y="185.225" style="fill:none;stroke:#D3E3F8;stroke-width:0.6695;stroke-linecap:round;stroke-linejoin:round;stroke-miterlimit:10;" width="42.11" height="34.957"/>
				
					<rect x="289.338" y="185.225" style="fill:none;stroke:#D3E3F8;stroke-width:0.6695;stroke-linecap:round;stroke-linejoin:round;stroke-miterlimit:10;" width="42.11" height="34.957"/>
				
					<rect x="331.448" y="185.225" style="fill:none;stroke:#D3E3F8;stroke-width:0.6695;stroke-linecap:round;stroke-linejoin:round;stroke-miterlimit:10;" width="42.11" height="34.957"/>
				<g>
					
						<rect x="289.338" y="150.268" style="fill:none;stroke:#D3E3F8;stroke-width:0.6695;stroke-linecap:round;stroke-linejoin:round;stroke-miterlimit:10;" width="42.11" height="34.957"/>
					
						<rect x="331.448" y="150.268" style="fill:none;stroke:#D3E3F8;stroke-width:0.6695;stroke-linecap:round;stroke-linejoin:round;stroke-miterlimit:10;" width="42.11" height="34.957"/>
				</g>
			</g>
			<g>
				
					<rect x="78.787" y="220.183" style="fill:none;stroke:#D3E3F8;stroke-width:0.6695;stroke-linecap:round;stroke-linejoin:round;stroke-miterlimit:10;" width="42.11" height="34.957"/>
				
					<rect x="120.897" y="220.183" style="fill:none;stroke:#D3E3F8;stroke-width:0.6695;stroke-linecap:round;stroke-linejoin:round;stroke-miterlimit:10;" width="42.11" height="34.957"/>
				
					<rect x="163.007" y="220.183" style="fill:none;stroke:#D3E3F8;stroke-width:0.6695;stroke-linecap:round;stroke-linejoin:round;stroke-miterlimit:10;" width="42.11" height="34.957"/>
				
					<rect x="205.118" y="220.183" style="fill:none;stroke:#D3E3F8;stroke-width:0.6695;stroke-linecap:round;stroke-linejoin:round;stroke-miterlimit:10;" width="42.11" height="34.957"/>
				
					<rect x="247.228" y="220.183" style="fill:none;stroke:#D3E3F8;stroke-width:0.6695;stroke-linecap:round;stroke-linejoin:round;stroke-miterlimit:10;" width="42.11" height="34.957"/>
				
					<rect x="289.338" y="220.183" style="fill:none;stroke:#D3E3F8;stroke-width:0.6695;stroke-linecap:round;stroke-linejoin:round;stroke-miterlimit:10;" width="42.11" height="34.957"/>
				
					<rect x="331.448" y="220.183" style="fill:none;stroke:#D3E3F8;stroke-width:0.6695;stroke-linecap:round;stroke-linejoin:round;stroke-miterlimit:10;" width="42.11" height="34.957"/>
			</g>
			<g>
				
					<rect x="78.787" y="255.14" style="fill:none;stroke:#D3E3F8;stroke-width:0.6695;stroke-linecap:round;stroke-linejoin:round;stroke-miterlimit:10;" width="42.11" height="34.957"/>
				
					<rect x="120.897" y="255.14" style="fill:none;stroke:#D3E3F8;stroke-width:0.6695;stroke-linecap:round;stroke-linejoin:round;stroke-miterlimit:10;" width="42.11" height="34.957"/>
				
					<rect x="163.007" y="255.14" style="fill:none;stroke:#D3E3F8;stroke-width:0.6695;stroke-linecap:round;stroke-linejoin:round;stroke-miterlimit:10;" width="42.11" height="34.957"/>
				
					<rect x="205.118" y="255.14" style="fill:none;stroke:#D3E3F8;stroke-width:0.6695;stroke-linecap:round;stroke-linejoin:round;stroke-miterlimit:10;" width="42.11" height="34.957"/>
				
					<rect x="247.228" y="255.14" style="fill:none;stroke:#D3E3F8;stroke-width:0.6695;stroke-linecap:round;stroke-linejoin:round;stroke-miterlimit:10;" width="42.11" height="34.957"/>
				
					<rect x="289.338" y="255.14" style="fill:none;stroke:#D3E3F8;stroke-width:0.6695;stroke-linecap:round;stroke-linejoin:round;stroke-miterlimit:10;" width="42.11" height="34.957"/>
				
					<rect x="331.448" y="255.14" style="fill:none;stroke:#D3E3F8;stroke-width:0.6695;stroke-linecap:round;stroke-linejoin:round;stroke-miterlimit:10;" width="42.11" height="34.957"/>
			</g>
			<g>
				
					<rect x="78.787" y="290.097" style="fill:none;stroke:#D3E3F8;stroke-width:0.6695;stroke-linecap:round;stroke-linejoin:round;stroke-miterlimit:10;" width="42.11" height="34.957"/>
				
					<rect x="120.897" y="290.097" style="fill:none;stroke:#D3E3F8;stroke-width:0.6695;stroke-linecap:round;stroke-linejoin:round;stroke-miterlimit:10;" width="42.11" height="34.957"/>
				
					<rect x="163.007" y="290.097" style="fill:none;stroke:#D3E3F8;stroke-width:0.6695;stroke-linecap:round;stroke-linejoin:round;stroke-miterlimit:10;" width="42.11" height="34.957"/>
				
					<rect x="205.118" y="290.097" style="fill:none;stroke:#D3E3F8;stroke-width:0.6695;stroke-linecap:round;stroke-linejoin:round;stroke-miterlimit:10;" width="42.11" height="34.957"/>
				
					<rect x="247.228" y="290.097" style="fill:none;stroke:#D3E3F8;stroke-width:0.6695;stroke-linecap:round;stroke-linejoin:round;stroke-miterlimit:10;" width="42.11" height="34.957"/>
				
					<rect x="289.338" y="290.097" style="fill:none;stroke:#D3E3F8;stroke-width:0.6695;stroke-linecap:round;stroke-linejoin:round;stroke-miterlimit:10;" width="42.11" height="34.957"/>
				
					<rect x="331.448" y="290.097" style="fill:none;stroke:#D3E3F8;stroke-width:0.6695;stroke-linecap:round;stroke-linejoin:round;stroke-miterlimit:10;" width="42.11" height="34.957"/>
			</g>
		</g>
		<g>
			<text transform="matrix(1 0 0 1 89.5459 150.2684)" style="fill:#7DA2D9; font-family:'Quicksand-Bold'; font-size:13.0334px;">Month 20</text>
			
				<polyline style="fill:none;stroke:#D3E3F8;stroke-width:0.931;stroke-linecap:round;stroke-linejoin:round;stroke-miterlimit:10;" points="
				81.82,143.436 78.787,145.925 81.82,148.415 			"/>
			
				<polyline style="fill:none;stroke:#D3E3F8;stroke-width:0.931;stroke-linecap:round;stroke-linejoin:round;stroke-miterlimit:10;" points="
				163.118,143.436 166.151,145.925 163.118,148.415 			"/>
		</g>
	</g>
	<g>
		<path style="fill:#A3601C;" d="M383.412,262.137c-5.814-2.286-12.365,0.536-14.652,6.349l-0.208,0.523
			c-0.186,0.5-0.385,1.099-0.545,1.655c-0.198,0.686-0.234,0.896-0.299,1.175l-0.188,0.852c-0.199,1.008-0.353,1.931-0.481,2.79
			c-0.251,1.716-0.421,3.338-0.577,4.917c-0.311,3.166-0.541,6.228-0.755,9.283c-0.416,6.1-0.61,12.134-0.868,18.153
			c-0.493,11.638-0.741,23.237-1.072,34.739c-1.608,4.221-3.199,8.451-4.636,12.749c-0.876,2.49-1.637,5.032-2.451,7.551
			l-2.403,7.572c-1.589,5.054-3.187,10.104-5.007,15.053c-0.465,1.233-0.851,2.502-1.38,3.706c-0.548,1.195-1.322,2.288-2.1,3.379
			c-0.766,1.097-1.448,2.231-1.894,3.473c-0.414,1.256-0.715,2.563-0.451,4.126c0.47,2.776,3.102,4.646,5.878,4.176
			c0.662-0.112,1.287-0.358,1.827-0.689c1.349-0.833,2.132-1.922,2.802-3.061c0.638-1.155,1.04-2.416,1.359-3.715
			c0.306-1.305,0.616-2.608,1.152-3.808c0.555-1.192,1.254-2.319,1.873-3.482c2.517-4.634,5.256-9.168,8.005-13.697l4.103-6.802
			c1.355-2.273,2.763-4.523,4.055-6.825c2.661-4.568,5.122-9.228,7.579-13.889c0.39-0.741,0.627-1.522,0.72-2.306l0.109-0.956
			c0.699-6.027,1.317-12.027,1.879-18.014c0.601-5.985,1.107-11.96,1.616-17.914l1.619-17.743c0.264-2.923,0.544-5.838,0.877-8.634
			l0.534-4.01c0.091-0.624,0.185-1.179,0.272-1.643l0.055-0.246c0.003-0.015,0.006-0.032,0.01-0.048l0.027-0.069
			C392.085,270.99,389.225,264.423,383.412,262.137z M389.73,277.004c-0.057,0.196-0.157,0.433-0.236,0.574l0.206-0.523l0.053-0.135
			C389.745,276.947,389.741,276.962,389.73,277.004z"/>
		<path style="fill:#B56B1F;" d="M423.413,234.277l-8.869,2.384l-11.822,0.13c0,0,1.661,12.535-11.043,15.094l-0.62,19.055
			l41.94,0.835l4.891-18.97C419.495,250.245,423.413,234.277,423.413,234.277z"/>
		<path style="fill:#B56B1F;" d="M376.447,448.333c-0.001,0.234,0.001,0.464-0.001,0.698c-0.018,5.824,0.077,11.862-0.018,18
			c-0.008,3.099-0.015,6.221-0.023,9.357l0.025,5.212c0.003,0.913,0.07,1.578,0.102,2.38l0.03,0.577l0.004,0.072
			c0.003-0.058-0.019,0.741-0.006,0.449l0.013,0.189l0.028,0.379l0.118,1.513c0.399,3.841,0.925,6.995,1.326,10.177
			c0.11,0.902,0.211,1.778,0.317,2.664h23.326c-0.258-1.786-0.492-3.563-0.685-5.31c-0.287-2.888-0.434-5.841-0.202-8.135
			l0.096-0.788l0.022-0.196l0.011-0.098c0.012-0.34-0.01,0.411-0.003,0.305l0.012-0.072l0.095-0.571
			c0.132-0.728,0.242-1.597,0.39-2.21l0.878-3.931c0.655-2.94,1.307-5.869,1.954-8.774c1.292-5.861,2.813-11.625,4.216-17.217
			c0.39-1.575,0.788-3.129,1.189-4.671H376.447z"/>
		<path style="fill:#B56B1F;" d="M443.525,486.802c0.232-5.971,0.463-11.942,0.691-17.819c0.2-6.041,0.613-11.998,0.943-17.753
			c0.052-0.974,0.113-1.934,0.171-2.896h-33.298c0.327,1.656,0.651,3.325,0.967,5.017c1.082,5.695,2.295,11.568,3.32,17.547
			c1.093,6.139,2.204,12.376,3.314,18.613c0.704,3.632,1.447,6.737,2.073,9.857c0.041,0.213,0.08,0.42,0.122,0.632h23.592
			c-0.367-1.662-0.711-3.319-1.021-4.963C443.884,492.171,443.528,489.25,443.525,486.802z"/>
		<g>
			<path style="fill:#2764C0;" d="M384.591,459.976c-7.316-1.912-14.451-4.4-21.462-7.242c2.911-65.637,17.673-113.06,17.673-113.06
				l64.641,3.856c0,0,12.371,31.825,10.728,114.356C431.704,463.654,409.685,466.535,384.591,459.976z"/>
		</g>
		<path style="fill:#FFC0A9;" d="M453.672,262.369c-7.407-7.382-15.781-9.563-15.781-9.563s-5.25,13.897-23.389,13.765
			c-18.129-0.59-22.822-14.685-22.822-14.685s-12.279-1.433-19.882,5.749c-7.602,7.182-6.931,18.187-11.813,34.599l18.642,8.782
			c0,0,4.078,26.922,2.175,38.659c0,0,12.309,9.665,32.043,10.058c19.734,0.393,32.598-6.202,32.598-6.202
			c-1.434-11.804,5.018-38.853,5.018-38.853S462.611,271.278,453.672,262.369z"/>
		<g>
			<defs>
				<path id="XMLID_67_" d="M375.581,202.499c0.868-18.513,8.313-23.89,24.77-25.425c9.808-0.915,19.837,4.506,25.868,12.296
					l0.871,1.125c4.986,6.439,7.232,17.299,5.694,25.297l-9.37,18.486c0,0-1.405,11.92,7.339,16.946
					c4.808,2.764-20.747,12.812-26.726,2.254l-0.606-12.97c0,0-8.913,4.665-16.131,1.682
					C383.513,240.628,374.182,232.332,375.581,202.499z"/>
			</defs>
			<use xlink:href="#XMLID_67_"  style="overflow:visible;fill:#B56B1F;"/>
			<clipPath id="XMLID_00000145053665242929765590000007388191401955340702_">
				<use xlink:href="#XMLID_67_"  style="overflow:visible;"/>
			</clipPath>
			<path style="clip-path:url(#XMLID_00000145053665242929765590000007388191401955340702_);fill:#E89A49;" d="M381.31,216.414
				c-0.177,1.808-2.213,3.089-4.547,2.86c-2.335-0.228-4.084-1.879-3.907-3.687c0.177-1.808,2.213-3.089,4.547-2.861
				C379.738,212.955,381.487,214.605,381.31,216.414z"/>
		</g>
		<path style="fill:#FFFFFF;" d="M393.669,226.378c0.861,0.117,1.302,1.165,0.715,1.806c-1.717,1.878-4.287,2.915-7,2.546
			c-2.665-0.362-4.833-1.995-6.003-4.201c-0.435-0.821,0.198-1.796,1.118-1.67L393.669,226.378z"/>
		<path style="fill:#E89A49;" d="M402.583,218.972c0,1.817-1.901,3.29-4.247,3.29c-2.346,0-4.247-1.473-4.247-3.29
			c0-1.817,1.902-3.29,4.247-3.29C400.682,215.682,402.583,217.155,402.583,218.972z"/>
		<path style="fill:#193441;" d="M400.34,210.962c0.115,1.107-0.688,2.098-1.795,2.213c-1.107,0.115-2.098-0.688-2.213-1.795
			c-0.115-1.107,0.688-2.098,1.795-2.213C399.234,209.051,400.225,209.855,400.34,210.962z"/>
		<path style="fill:#193441;" d="M381.38,207.921c0.115,1.107-0.688,2.098-1.795,2.213c-1.107,0.115-2.098-0.688-2.213-1.795
			c-0.115-1.107,0.688-2.098,1.795-2.213C380.273,206.011,381.264,206.814,381.38,207.921z"/>
		<path style="fill:#B56B1F;" d="M417.585,287.905c-1.395,2.318-2.969,4.895-4.694,7.686c-3.624,5.789-7.948,12.504-12.889,19.038
			c-2.45,3.255-5.139,6.429-7.789,9.097c-1.318,1.319-2.658,2.473-3.75,3.239c-0.538,0.382-0.994,0.637-1.23,0.777
			c-0.239,0.146-0.205,0.136,0.211,0.208c-0.224,0.176-1.975-0.083-3.66-0.628c-1.738-0.548-3.67-1.256-5.585-2.1
			c-3.862-1.67-7.814-3.622-11.572-5.688c-3.771-2.061-7.404-4.198-10.826-6.293c-3.424-2.094-6.587-4.216-9.482-6.217
			c-1.435-1.02-2.811-1.997-4.119-2.926c-1.314-0.925-2.536-1.836-3.536-2.867c-1.983-2.085-3.483-4.157-5.068-5.453
			c-1.534-1.355-2.965-2.159-4.033-2.601c-1.057-0.459-1.733-0.548-1.733-0.548l-0.29-0.04c-0.711-0.091-1.451-0.042-2.184,0.167
			c-2.897,0.826-4.576,3.845-3.75,6.742c0,0,0.201,0.707,0.806,1.724c0.592,1.034,1.606,2.386,3.204,3.751
			c1.549,1.422,3.869,2.633,6.307,4.267c1.21,0.829,2.348,1.887,3.533,3.027c1.202,1.12,2.466,2.297,3.786,3.526
			c2.66,2.462,5.541,5.128,8.589,7.949c3.07,2.829,6.368,5.774,9.928,8.739c3.578,2.949,7.357,5.98,11.681,8.797
			c2.183,1.386,4.466,2.784,7.106,4.008c1.33,0.611,2.737,1.199,4.328,1.721c0.812,0.263,1.616,0.494,2.603,0.718l0.882,0.168
			l0.767,0.13l0.439,0.072l0.22,0.036c-0.271-0.021,0.42,0.037,0.406,0.036l0.128,0.008l0.256,0.014
			c2.788,0.167,5.187-0.303,7.188-0.908c2.008-0.617,3.696-1.389,5.199-2.193c2.987-1.62,5.371-3.375,7.553-5.139
			c4.332-3.532,7.801-7.214,11.026-10.793c3.212-3.581,6.038-7.144,8.638-10.546c2.605-3.396,4.923-6.67,7.014-9.712
			c0.464-0.672,0.91-1.329,1.348-1.978C428.748,300.721,423.362,294.147,417.585,287.905z"/>
		<path style="fill:#193441;" d="M443.611,203.397c-0.78-15.566-4.999-27.74-16.237-34.753c-7.383-4.607-16.636-6.459-25.294-5.777
			c-7.879,0.621-16.745,2.736-22.571,9.743c-1.868,2.246-5.882,10.835,2.535,14.557c2.977,1.316,7.065,0.681,8.942,3.34
			c1.804,2.556,0.054,6.382,1.606,9.098c1.325,2.319,4.447,2.816,7.113,2.659c2.666-0.157,5.498-0.679,7.893,0.504
			c3.276,1.619,4.37,5.723,4.687,9.364c0.317,3.64,0.316,7.597,2.546,10.492c0.759,0.985,1.888,1.835,3.127,1.733
			c1.61-0.133,2.621-1.715,3.751-2.868c1.431-1.461,3.246-2.29,5.203-2.884c0.018,3.827-0.478,8.182-2.125,12.294
			c0,0,7.369-6.107,11.499-14.921C440.949,213.666,443.878,208.723,443.611,203.397z"/>
		<path style="fill:#193441;" d="M375.763,202.126c0,0,0.612-11.596,7.737-15.251l-3.123-7.94
			C380.377,178.935,369.694,185.763,375.763,202.126z"/>
		<path style="fill:#A3601C;" d="M402.583,240.903c0,0-0.542,3.222-2.232,5.7c0,0,9.565-3.103,12.961-10.666
			C406.938,239.583,402.583,240.903,402.583,240.903z"/>
		<g>
			<path style="fill:#1D4B90;" d="M423.242,463.388l3.888-70.328l4.783,69.442c0,0-1.579,0.222-3.934,0.464
				C425.625,463.208,423.242,463.388,423.242,463.388z"/>
		</g>
		<g>
			<path style="fill:#E89A49;" d="M421.458,379.917c0,0.874-0.709,1.583-1.583,1.583c-0.875,0-1.583-0.709-1.583-1.583
				c0-0.874,0.709-1.583,1.583-1.583C420.749,378.333,421.458,379.042,421.458,379.917z"/>
		</g>
		<g>
			<path style="fill:#E89A49;" d="M420.583,399.432c0,0.874-0.709,1.583-1.583,1.583c-0.875,0-1.583-0.709-1.583-1.583
				c0-0.874,0.709-1.583,1.583-1.583C419.874,397.849,420.583,398.558,420.583,399.432z"/>
		</g>
		<g>
			<path style="fill:#1D4B90;" d="M378.333,349.75c0,0,0.237,0.152,0.681,0.438c0.44,0.297,1.12,0.654,1.983,1.109
				c0.869,0.447,1.945,0.949,3.213,1.441c0.63,0.254,1.306,0.509,2.031,0.746c0.718,0.254,1.478,0.503,2.277,0.748
				c1.592,0.503,3.35,0.938,5.206,1.389c0.936,0.194,1.897,0.393,2.88,0.596c0.992,0.157,1.994,0.368,3.026,0.517
				c2.06,0.319,4.199,0.574,6.38,0.754c1.09,0.095,2.188,0.195,3.295,0.235c1.106,0.06,2.216,0.116,3.328,0.117
				c4.46,0.123,8.908-0.023,13.048-0.433c2.066-0.233,4.057-0.524,5.936-0.863c1.871-0.376,3.639-0.758,5.254-1.193
				c0.811-0.206,1.582-0.425,2.311-0.651c0.736-0.205,1.432-0.411,2.078-0.628c1.304-0.403,2.42-0.819,3.344-1.151
				c1.842-0.693,2.895-1.088,2.895-1.088s-0.247,0.134-0.711,0.386c-0.468,0.243-1.136,0.644-2.026,1.067
				c-0.889,0.426-1.965,0.959-3.233,1.499c-1.259,0.562-2.704,1.147-4.317,1.685c-1.602,0.574-3.378,1.082-5.274,1.556
				c-1.9,0.459-3.926,0.857-6.04,1.148c-2.114,0.288-4.311,0.498-6.544,0.588c-2.242,0.091-4.492,0.144-6.765,0.069
				c-1.135-0.013-2.269-0.082-3.397-0.154c-1.13-0.052-2.251-0.165-3.364-0.274c-2.225-0.218-4.4-0.57-6.494-0.952
				c-2.095-0.381-4.092-0.893-5.974-1.406c-1.876-0.541-3.627-1.126-5.212-1.749c-1.591-0.605-3.012-1.257-4.238-1.896
				c-1.233-0.623-2.272-1.237-3.104-1.773c-0.425-0.252-0.779-0.526-1.089-0.754c-0.314-0.224-0.57-0.423-0.767-0.599
				C378.548,349.931,378.333,349.75,378.333,349.75z"/>
		</g>
	</g>
</g>
</svg>
